<?xml version="1.0" encoding="utf-8"?>
<!-- Generator: Adobe Illustrator 25.2.3, SVG Export Plug-In . SVG Version: 6.00 Build 0)  -->
<svg version="1.1" id="Capa_1" xmlns="http://www.w3.org/2000/svg" xmlns:xlink="http://www.w3.org/1999/xlink" x="0px" y="0px"
	 viewBox="0 0 159.8 20.3" style="enable-background:new 0 0 159.8 20.3;" xml:space="preserve">
<style type="text/css">
	.st0{fill:#FFFFFF;}
	.st1{fill:#020303;}
</style>
<g>
	<path class="st1" d="M0,15.7V0.4h2.4v7.9l7.2-7.9h2.7l-6,6.8l6.4,8.5H9.9l-5.2-7l-2.3,2.4v4.6H0z"/>
	<path class="st1" d="M18.2,15.9c-0.9,0-1.7-0.2-2.4-0.5c-0.7-0.3-1.3-0.7-1.8-1.3c-0.5-0.5-0.9-1.2-1.2-1.8
		c-0.3-0.7-0.4-1.4-0.4-2.2c0-0.8,0.1-1.5,0.4-2.2c0.3-0.7,0.7-1.3,1.2-1.8c0.5-0.5,1.1-1,1.8-1.3c0.7-0.3,1.5-0.5,2.4-0.5
		s1.7,0.2,2.4,0.5c0.7,0.3,1.3,0.7,1.8,1.3s0.9,1.1,1.2,1.8S24,9.4,24,10.1c0,0.8-0.1,1.5-0.4,2.2c-0.3,0.7-0.7,1.3-1.2,1.8
		s-1.1,1-1.8,1.3C19.9,15.8,19.1,15.9,18.2,15.9z M14.9,10.2c0,0.7,0.2,1.3,0.5,1.9s0.7,1,1.2,1.3c0.5,0.3,1.1,0.5,1.7,0.5
		c0.6,0,1.2-0.2,1.7-0.5c0.5-0.3,0.9-0.8,1.2-1.4c0.3-0.6,0.5-1.2,0.5-1.9c0-0.7-0.2-1.3-0.5-1.9s-0.7-1-1.2-1.3
		c-0.5-0.3-1.1-0.5-1.7-0.5c-0.6,0-1.2,0.2-1.7,0.5c-0.5,0.3-0.9,0.8-1.2,1.3C15,8.8,14.9,9.4,14.9,10.2z"/>
	<path class="st1" d="M32.5,15.9c-0.9,0-1.7-0.2-2.4-0.6c-0.7-0.4-1.2-1-1.6-1.7v6.7h-2.4V4.5h2.1v2c0.4-0.7,1-1.2,1.7-1.6
		c0.7-0.4,1.5-0.6,2.3-0.6c0.8,0,1.5,0.2,2.1,0.5s1.2,0.7,1.7,1.3c0.5,0.5,0.8,1.2,1.1,1.8c0.3,0.7,0.4,1.4,0.4,2.2
		c0,1.1-0.2,2-0.6,2.9c-0.4,0.9-1,1.6-1.8,2.1C34.4,15.7,33.5,15.9,32.5,15.9z M31.7,13.9c0.5,0,1-0.1,1.4-0.3
		c0.4-0.2,0.8-0.5,1.1-0.8s0.5-0.8,0.7-1.2c0.2-0.5,0.2-0.9,0.2-1.4c0-0.5-0.1-1-0.3-1.4c-0.2-0.5-0.4-0.8-0.7-1.2
		c-0.3-0.3-0.7-0.6-1.1-0.8s-0.9-0.3-1.4-0.3c-0.3,0-0.6,0.1-0.9,0.2C30.3,6.7,30,6.8,29.7,7c-0.3,0.2-0.5,0.4-0.8,0.7
		c-0.2,0.3-0.4,0.5-0.5,0.8v2.9c0.2,0.5,0.5,0.9,0.8,1.2s0.7,0.6,1.1,0.9C30.9,13.8,31.3,13.9,31.7,13.9z"/>
	<path class="st1" d="M38.8,12.4c0-0.7,0.2-1.3,0.6-1.9c0.4-0.5,1-0.9,1.7-1.2c0.7-0.3,1.5-0.4,2.5-0.4c0.5,0,1,0,1.5,0.1
		c0.5,0.1,1,0.2,1.4,0.3V8.7c0-0.8-0.2-1.4-0.7-1.8c-0.5-0.4-1.2-0.7-2-0.7c-0.6,0-1.2,0.1-1.8,0.3c-0.6,0.2-1.2,0.5-1.8,0.9
		l-0.8-1.6c0.7-0.5,1.5-0.9,2.2-1.1c0.8-0.2,1.5-0.4,2.4-0.4c1.5,0,2.7,0.4,3.6,1.2c0.9,0.8,1.3,1.9,1.3,3.4V13c0,0.3,0,0.5,0.1,0.6
		c0.1,0.1,0.3,0.2,0.5,0.2v1.9c-0.2,0-0.4,0.1-0.6,0.1c-0.2,0-0.3,0-0.4,0c-0.5,0-0.9-0.1-1.1-0.4c-0.3-0.2-0.4-0.5-0.5-0.9
		l-0.1-0.6c-0.5,0.6-1.1,1.1-1.9,1.5c-0.8,0.3-1.5,0.5-2.3,0.5c-0.7,0-1.4-0.2-2-0.5s-1-0.7-1.4-1.2C39,13.7,38.8,13.1,38.8,12.4z
		 M46,13.1c0.2-0.2,0.3-0.4,0.4-0.5c0.1-0.2,0.2-0.3,0.2-0.5v-1.3c-0.4-0.2-0.8-0.3-1.3-0.3c-0.4-0.1-0.9-0.1-1.3-0.1
		c-0.9,0-1.6,0.2-2.1,0.5c-0.5,0.3-0.8,0.8-0.8,1.4c0,0.3,0.1,0.6,0.3,0.9c0.2,0.3,0.4,0.5,0.8,0.7c0.3,0.2,0.8,0.3,1.3,0.3
		c0.5,0,1-0.1,1.5-0.3C45.3,13.7,45.7,13.4,46,13.1z"/>
	<path class="st1" d="M63.2,15.7v-8l-2.6,5.7h-2.2l-2.6-5.7v8h-4.2V0.4h4.6l3.3,7.2l3.3-7.2h4.6v15.3H63.2z"/>
	<path class="st1" d="M69,12.3c0-0.7,0.2-1.4,0.6-2c0.4-0.6,1-1,1.7-1.3s1.6-0.5,2.5-0.5c0.4,0,0.9,0,1.3,0.1c0.4,0.1,0.7,0.2,1,0.3
		V8.6c0-0.5-0.2-0.9-0.5-1.1c-0.3-0.2-0.8-0.4-1.5-0.4c-0.6,0-1.2,0.1-1.8,0.3c-0.6,0.2-1.1,0.5-1.7,0.9l-1.2-2.5
		C70.2,5.3,71,5,71.9,4.7c0.8-0.2,1.7-0.4,2.7-0.4c1.8,0,3.2,0.4,4.2,1.2c1,0.8,1.5,2,1.5,3.5v2.1c0,0.4,0.1,0.6,0.2,0.8
		c0.1,0.1,0.3,0.2,0.6,0.3v3.4c-0.3,0.1-0.6,0.1-0.9,0.2s-0.6,0.1-0.8,0.1c-0.7,0-1.3-0.1-1.7-0.4c-0.4-0.3-0.6-0.7-0.7-1.2
		l-0.1-0.4c-0.5,0.6-1.1,1.1-1.7,1.5c-0.7,0.3-1.4,0.5-2.1,0.5s-1.4-0.2-2-0.5c-0.6-0.3-1.1-0.7-1.4-1.3C69.1,13.6,69,13,69,12.3z
		 M75.6,12.6c0.2-0.1,0.3-0.2,0.4-0.4c0.1-0.1,0.2-0.3,0.2-0.4V11c-0.2-0.1-0.5-0.1-0.8-0.2c-0.3-0.1-0.6-0.1-0.8-0.1
		c-0.5,0-0.9,0.1-1.2,0.3c-0.3,0.2-0.5,0.5-0.5,0.9c0,0.2,0.1,0.4,0.2,0.5c0.1,0.2,0.3,0.3,0.5,0.4c0.2,0.1,0.4,0.1,0.7,0.1
		c0.2,0,0.5,0,0.8-0.1C75.2,12.8,75.4,12.7,75.6,12.6z"/>
	<path class="st1" d="M93.9,15.7h-4.1V9.5c0-0.5-0.1-0.9-0.4-1.2c-0.3-0.2-0.5-0.4-0.9-0.4c-0.2,0-0.5,0.1-0.7,0.2
		c-0.3,0.1-0.5,0.3-0.7,0.5s-0.4,0.5-0.5,0.8v6.2h-4.1V4.5h3.7v1.7c0.3-0.4,0.6-0.8,1-1c0.4-0.3,0.9-0.5,1.4-0.6
		c0.5-0.1,1.1-0.2,1.8-0.2c0.8,0,1.4,0.1,1.9,0.4c0.5,0.3,0.8,0.6,1,1c0.2,0.4,0.4,0.9,0.5,1.3c0.1,0.5,0.1,0.9,0.1,1.3V15.7z"/>
	<path class="st1" d="M95.2,10.1c0-1.1,0.2-2.1,0.6-3c0.4-0.9,1-1.6,1.8-2.1s1.6-0.8,2.6-0.8c0.7,0,1.4,0.2,2,0.5
		c0.6,0.3,1.1,0.8,1.4,1.4V0h4.1v11.2c0,0.4,0.1,0.7,0.2,0.8c0.1,0.2,0.3,0.2,0.6,0.3v3.4c-0.7,0.1-1.3,0.2-1.7,0.2
		c-0.7,0-1.2-0.1-1.6-0.4c-0.4-0.3-0.7-0.7-0.8-1.2l-0.1-0.4c-0.4,0.7-0.9,1.2-1.6,1.5s-1.4,0.5-2.1,0.5c-0.8,0-1.5-0.1-2.1-0.4
		c-0.7-0.3-1.2-0.7-1.7-1.2c-0.5-0.5-0.8-1.1-1.1-1.8C95.4,11.8,95.2,11,95.2,10.1z M103.6,11.4V9.4c-0.1-0.3-0.3-0.6-0.5-0.8
		c-0.2-0.2-0.5-0.4-0.7-0.6c-0.3-0.1-0.6-0.2-0.8-0.2c-0.3,0-0.6,0.1-0.8,0.2c-0.3,0.1-0.5,0.3-0.7,0.5c-0.2,0.2-0.3,0.5-0.4,0.8
		c-0.1,0.3-0.2,0.6-0.2,0.9c0,0.3,0.1,0.7,0.2,0.9c0.1,0.3,0.3,0.5,0.5,0.7c0.2,0.2,0.4,0.4,0.7,0.5s0.6,0.2,0.9,0.2
		c0.2,0,0.4,0,0.6-0.1c0.2,0,0.3-0.1,0.5-0.2c0.2-0.1,0.3-0.2,0.5-0.4S103.5,11.5,103.6,11.4z"/>
	<path class="st1" d="M109.5,12.3c0-0.7,0.2-1.4,0.6-2c0.4-0.6,1-1,1.7-1.3c0.7-0.3,1.6-0.5,2.5-0.5c0.4,0,0.9,0,1.3,0.1
		c0.4,0.1,0.7,0.2,1,0.3V8.6c0-0.5-0.2-0.9-0.5-1.1s-0.8-0.4-1.5-0.4c-0.6,0-1.2,0.1-1.8,0.3c-0.6,0.2-1.1,0.5-1.7,0.9L110,5.8
		c0.8-0.5,1.6-0.9,2.4-1.1c0.8-0.2,1.7-0.4,2.7-0.4c1.8,0,3.2,0.4,4.2,1.2c1,0.8,1.5,2,1.5,3.5v2.1c0,0.4,0.1,0.6,0.2,0.8
		c0.1,0.1,0.3,0.2,0.6,0.3v3.4c-0.3,0.1-0.6,0.1-0.9,0.2s-0.6,0.1-0.8,0.1c-0.7,0-1.3-0.1-1.7-0.4c-0.4-0.3-0.6-0.7-0.7-1.2
		l-0.1-0.4c-0.5,0.6-1.1,1.1-1.7,1.5s-1.4,0.5-2.1,0.5s-1.4-0.2-2-0.5c-0.6-0.3-1.1-0.7-1.4-1.3C109.7,13.6,109.5,13,109.5,12.3z
		 M116.2,12.6c0.2-0.1,0.3-0.2,0.4-0.4c0.1-0.1,0.2-0.3,0.2-0.4V11c-0.2-0.1-0.5-0.1-0.8-0.2c-0.3-0.1-0.6-0.1-0.8-0.1
		c-0.5,0-0.9,0.1-1.2,0.3s-0.5,0.5-0.5,0.9c0,0.2,0.1,0.4,0.2,0.5c0.1,0.2,0.3,0.3,0.5,0.4s0.4,0.1,0.7,0.1c0.2,0,0.5,0,0.8-0.1
		C115.7,12.8,116,12.7,116.2,12.6z"/>
	<path class="st1" d="M122.4,10.1c0-1.1,0.2-2.1,0.6-3c0.4-0.9,1-1.6,1.8-2.1s1.6-0.8,2.6-0.8c0.7,0,1.4,0.2,2,0.5
		c0.6,0.3,1.1,0.8,1.4,1.4V0h4.1v11.2c0,0.4,0.1,0.7,0.2,0.8c0.1,0.2,0.3,0.2,0.6,0.3v3.4c-0.7,0.1-1.3,0.2-1.7,0.2
		c-0.7,0-1.2-0.1-1.6-0.4c-0.4-0.3-0.7-0.7-0.8-1.2l-0.1-0.4c-0.4,0.7-0.9,1.2-1.6,1.5s-1.4,0.5-2.1,0.5c-0.8,0-1.5-0.1-2.1-0.4
		c-0.7-0.3-1.2-0.7-1.7-1.2c-0.5-0.5-0.8-1.1-1.1-1.8C122.6,11.8,122.4,11,122.4,10.1z M130.8,11.4V9.4c-0.1-0.3-0.3-0.6-0.5-0.8
		c-0.2-0.2-0.5-0.4-0.7-0.6c-0.3-0.1-0.6-0.2-0.8-0.2c-0.3,0-0.6,0.1-0.8,0.2c-0.3,0.1-0.5,0.3-0.7,0.5c-0.2,0.2-0.3,0.5-0.4,0.8
		c-0.1,0.3-0.2,0.6-0.2,0.9c0,0.3,0.1,0.7,0.2,0.9c0.1,0.3,0.3,0.5,0.5,0.7c0.2,0.2,0.4,0.4,0.7,0.5s0.6,0.2,0.9,0.2
		c0.2,0,0.4,0,0.6-0.1c0.2,0,0.3-0.1,0.5-0.2c0.2-0.1,0.3-0.2,0.5-0.4S130.7,11.5,130.8,11.4z"/>
	<path class="st1" d="M142.9,15.9c-1,0-1.9-0.2-2.7-0.5c-0.8-0.3-1.4-0.7-1.9-1.3c-0.5-0.5-0.9-1.2-1.2-1.9s-0.4-1.4-0.4-2.2
		c0-0.8,0.1-1.5,0.4-2.2c0.3-0.7,0.7-1.3,1.2-1.9c0.5-0.5,1.2-1,1.9-1.3c0.8-0.3,1.7-0.5,2.7-0.5c1,0,1.9,0.2,2.7,0.5
		s1.4,0.7,1.9,1.3c0.5,0.5,0.9,1.2,1.2,1.9c0.3,0.7,0.4,1.4,0.4,2.2c0,0.8-0.1,1.5-0.4,2.2s-0.7,1.3-1.2,1.9c-0.5,0.5-1.2,1-1.9,1.3
		C144.8,15.8,143.9,15.9,142.9,15.9z M140.9,10.1c0,0.5,0.1,0.9,0.3,1.2s0.4,0.6,0.7,0.8c0.3,0.2,0.6,0.3,1,0.3c0.4,0,0.7-0.1,1-0.3
		c0.3-0.2,0.5-0.5,0.7-0.8c0.2-0.4,0.3-0.8,0.3-1.2c0-0.5-0.1-0.9-0.3-1.2c-0.2-0.4-0.4-0.6-0.7-0.8c-0.3-0.2-0.6-0.3-1-0.3
		c-0.4,0-0.7,0.1-1,0.3c-0.3,0.2-0.5,0.5-0.7,0.8C141,9.2,140.9,9.7,140.9,10.1z"/>
	<path class="st1" d="M155.1,15.9c-1,0-2-0.2-2.9-0.5c-1-0.3-1.8-0.8-2.4-1.4l1.4-2.5c0.7,0.5,1.4,0.8,2,1.1
		c0.7,0.3,1.2,0.4,1.8,0.4c0.3,0,0.5,0,0.7-0.1s0.2-0.2,0.2-0.3c0-0.1,0-0.2-0.2-0.3c-0.1-0.1-0.3-0.2-0.5-0.3
		c-0.2-0.1-0.5-0.2-0.8-0.3c-0.9-0.3-1.6-0.6-2.2-0.9s-1-0.6-1.3-1c-0.3-0.4-0.4-0.9-0.4-1.6c0-0.8,0.2-1.4,0.6-2
		c0.4-0.6,0.9-1,1.7-1.4c0.7-0.3,1.6-0.5,2.6-0.5c0.8,0,1.5,0.1,2.3,0.4c0.8,0.2,1.5,0.7,2.2,1.3l-1.5,2.5c-0.7-0.4-1.3-0.8-1.8-0.9
		c-0.5-0.2-0.9-0.3-1.3-0.3c-0.2,0-0.3,0-0.5,0.1s-0.2,0.1-0.3,0.2c-0.1,0.1-0.1,0.2-0.1,0.3s0.1,0.3,0.2,0.3
		c0.1,0.1,0.3,0.2,0.5,0.3c0.2,0.1,0.5,0.2,0.8,0.3c1,0.3,1.8,0.6,2.4,0.8c0.6,0.3,1.1,0.6,1.4,1c0.3,0.4,0.4,0.9,0.4,1.6
		c0,1.2-0.4,2.1-1.3,2.7C157.7,15.6,156.6,15.9,155.1,15.9z"/>
</g>
</svg>
